<?xml version="1.0" encoding="UTF-8"?>
<svg id="_レイヤー_1" data-name="レイヤー_1" xmlns="http://www.w3.org/2000/svg" version="1.1" viewBox="0 0 2500 1474">
  <!-- Generator: Adobe Illustrator 29.6.1, SVG Export Plug-In . SVG Version: 2.1.1 Build 9)  -->
  <defs>
    <style>
      .st0 {
        fill: #727171;
      }

      .st1 {
        fill: #e6e6e6;
      }

      .st2 {
        fill: #9fa0a0;
      }

      .st3 {
        fill: #595757;
      }

      .st4 {
        fill: #333;
      }
    </style>
  </defs>
  <path class="st3" d="M267.33,286.5h655.11V0H349.44c-45.18,0-81.87,36.49-82.11,81.67v204.83Z"/>
  <path class="st0" d="M1577.56,0h-655.11v286.5h655.11V0Z"/>
  <path class="st2" d="M2232.67,286.5h-655.11V0h573.44c45.11,0,81.67,36.57,81.67,81.67h0v204.83Z"/>
  <path class="st4" d="M2151,1474H349.44c-45.35,0-82.11-36.76-82.11-82.11V245.45h1965.33v1146.44c0,45.18-36.49,81.87-81.67,82.11h0Z"/>
  <path class="st1" d="M1156.37,1279.61v-417.97h-71.71v-124.36h71.71v-20.57c0-65.17,19.94-137.05,68.12-181.8,42.73-40.05,100.64-54.18,150.11-54.18,36.97,0,65.89,4.93,89.33,11.51l-6.79,129.31c-14.74-4.48-31.9-7.75-54.48-7.75-55.42,0-78.76,43.51-78.76,95.96v27.51h108.52v124.36h-107.21v417.97h-168.84Z"/>
</svg>